PathFileType	4	(X/Y/Z)	Patient4_TMGait_0pt2_03_right_09.trc.trc
DataRate	CameraRate	NumFrames	NumMarkers	Units	OrigDataRate	OrigDataStartFrame	OrigNumFrames
45.901639344262	45.901639344262	4	33	mm	45.901639344262	18	       141
Frame#	Time	Sacral			L.Shoulder			Chest			R.Shoulder			Neck			R.ASIS			L.ASIS			R.Thigh.Superior			R.Thigh.Lateral			R.Thigh.Inferior			R.Patella			L.Thigh.Superior			L.Thigh.Lateral			L.Thigh.Inferior			L.Patella			L.Shank.Superior			L.Shank.Lateral			L.Shank.Inferior			R.Shank.Superior			R.Shank.Lateral			R.Shank.Inferior			R.Heel			R.Midfoot.Superior			R.Midfoot.Lateral			R.Toe			L.Heel			L.Midfoot.Lateral			L.Midfoot.Superior			L.Toe			L.Elbow			L.Wrist			R.Elbow			R.Wrist			
		X1	Y1	Z1	X2	Y2	Z2	X3	Y3	Z3	X4	Y4	Z4	X5	Y5	Z5	X6	Y6	Z6	X7	Y7	Z7	X8	Y8	Z8	X9	Y9	Z9	X10	Y10	Z10	X11	Y11	Z11	X12	Y12	Z12	X13	Y13	Z13	X14	Y14	Z14	X15	Y15	Z15	X16	Y16	Z16	X17	Y17	Z17	X18	Y18	Z18	X19	Y19	Z19	X20	Y20	Z20	X21	Y21	Z21	X22	Y22	Z22	X23	Y23	Z23	X24	Y24	Z24	X25	Y25	Z25	X26	Y26	Z26	X27	Y27	Z27	X28	Y28	Z28	X29	Y29	Z29	X30	Y30	Z30	X31	Y31	Z31	X32	Y32	Z32	X33	Y33	Z33	

18	19.530357142857	727.067836083208	1019.282197230345	394.133220575363	964.309259399199	1435.175603158665	245.991903162922	1014.427793856421	1371.931870449261	428.844216558450	894.674184368600	1457.959196222263	572.886705399737	895.088961295616	1502.327942724813	391.567227368358	924.809293514059	955.981317694538	560.682081003848	966.989659665736	963.140960099867	289.139064701340	987.925586587568	765.820633345178	547.254312025175	921.066621312492	655.545851800587	620.502251279374	1007.737029714462	602.616415965877	549.533703197076	1028.650626865904	522.143135329091	570.310580258435	979.263069906732	738.943210072014	323.666117791926	880.349072932740	626.359248819027	242.502871879477	949.489584712677	548.238892044513	321.581282294824	939.477243367361	481.957712255035	330.517841402741	911.693131465224	411.926890627207	319.305745732286	823.149311872215	301.330860163971	260.161036259325	856.518474493647	189.008745138196	338.294611567797	1008.339842291421	435.438162459295	587.336712207718	949.286621915013	332.923282496910	663.977091888041	1009.483311307131	236.375210267789	618.126519808856	899.123764016149	54.739628390141	614.064296579982	1071.998384179341	119.159032933651	637.347275407496	991.033419301916	48.399087641420	677.936313499623	1195.589532009651	74.730483812981	649.805308936013	718.304570163096	38.092368312298	371.521564823280	796.280765937699	34.652871728673	294.470026705850	878.873170913970	94.987056882410	326.426503456714	1008.481932143204	41.701377736783	303.994875947179	1107.320803864300	1138.455405336570	104.479503885926	1363.568509979494	1137.624900574752	140.084349968179	696.315662026920	1174.806111706247	657.574419320156	636.636294058814	919.230451186948	654.323746370687	
19	19.552142857143	728.514583070487	1018.875031525209	397.910458016129	965.363997446196	1434.196017434807	249.336267822903	1015.593295193333	1371.477809301066	432.150185485739	896.268828828692	1458.151112516138	576.157134939557	896.169453026165	1501.753105531622	394.621473022625	925.749934246785	954.680058391037	564.439213604369	968.390435890178	962.694684983177	292.875901822811	986.706437430495	763.034070950943	551.690747061015	917.301789127543	652.834681472171	623.231075587049	1004.352237545517	600.259550028745	552.624020260343	1023.788317728951	521.346871295413	572.035325801333	977.695154577935	737.704037661366	326.256705150987	876.786510587222	627.097046876095	244.201228710986	944.418995644296	547.542416214306	322.537981673972	933.470723983590	481.923074984429	331.057320174246	906.055484388471	412.386853010605	319.693647042802	817.595200262989	301.752278029059	260.574329013082	851.688135273731	189.269107562047	338.311988860024	1006.572851207399	434.253600632927	589.018563013312	950.565901541695	329.327735785285	665.163229329161	1013.906775500683	234.654057444470	618.695169050444	908.358598836017	50.998074075620	613.910056701464	1080.477152447501	117.146181856701	636.367722205437	1000.731025950555	44.971738791902	676.792546029183	1204.709290937408	73.935917299535	647.097649486781	713.896237990268	38.016763628942	371.552160648589	791.852857946405	34.594639911252	294.484026404290	874.463795039337	94.946256416694	326.384495303978	1004.069576393614	41.635840537061	303.976219272913	1112.917476256561	1140.942902738307	107.807289539518	1368.732204040793	1152.087441705543	143.466025863697	698.802666288899	1174.484156834643	660.322841023134	640.410410919618	918.326405671950	654.249324000896	
20	19.573928571429	730.294397781349	1018.044224839899	402.296588313514	966.001630884302	1433.089667580440	253.237800644627	1016.767306609399	1370.848733830135	435.907282037976	897.954745240657	1457.875672284737	580.113955684974	897.098488732196	1500.909357124358	398.381033039512	927.386501444316	952.994689373533	568.376144650872	970.050844014379	962.184621466753	296.761151399378	986.705324533858	760.159836983017	555.784273522817	914.981119328916	649.819175232781	625.495744259189	1002.459514088565	597.876646772342	555.189134397511	1020.098004978021	519.890973861145	573.286762870159	976.528832122078	736.355700177419	328.728896896473	873.401643571865	627.780311886222	246.072970123965	939.640693701935	546.802303003383	323.512919208991	927.842071610546	481.846189072773	331.628484009918	900.615928408103	412.810742458526	320.155798172839	812.128211478936	302.226284248499	261.047166588344	846.927514055584	189.524882152142	338.318127033139	1005.058577333349	432.337536802476	590.160180509662	950.857294279216	325.957818798241	665.689204603693	1015.872028896488	232.607819240443	618.510005469601	912.958533892914	48.616427951806	613.103532611533	1084.680008681601	114.828636237160	634.493853801096	1005.612859351391	42.412032892736	675.145550470804	1208.980799731616	71.765540589034	643.798238719424	709.480659392436	37.953872247608	371.575615919170	787.420387893703	34.545361512680	294.497392405963	870.053639557741	94.912790309432	326.327889882601	999.647760926275	41.575445046574	303.950748528850	1117.670978512551	1143.058726234349	111.554334521774	1372.628768117127	1165.062391928594	147.101545981503	702.240157342920	1172.991971409174	664.126653166393	645.754730668170	916.118296928599	655.469977453701	
21	19.595714285714	732.403563854230	1016.908541024895	407.226962608684	966.325351441458	1431.964747639227	257.702552610815	1017.982417853122	1370.139102359599	440.140046942179	899.716327542034	1457.237933768963	584.739560432844	897.913410714265	1499.890764057015	402.840854646584	929.695414169892	951.070514250069	572.490604620018	971.978233337960	961.681761640180	300.809649203693	987.868014101529	757.285494332866	559.462275500752	914.136713758580	646.686695692014	627.384468532893	1001.932661144724	595.529434882288	557.213375708189	1017.575301583775	517.892661186227	574.082843657400	975.732479332713	734.946663028554	331.134591927845	870.193135127394	628.443909124041	248.146589380209	935.156458128611	546.061281414331	324.570722450698	922.581180652522	481.751474690107	332.296897092679	895.376755005721	413.230169865040	320.736298754277	806.755336600992	302.785422629059	261.608989097524	842.242350429504	189.798840604272	338.329311757944	1003.883547410995	429.815371424712	590.806747912969	950.445377980185	322.777419998007	665.745487619377	1015.765300627268	230.175366678378	617.703413994795	913.488368459616	47.115266512634	611.954491093680	1085.156948078982	112.231953408115	631.933333259446	1006.344823118807	40.520409046180	673.298845628515	1209.178827007956	68.551069688722	640.150735864402	705.064819627418	37.927142676275	371.591433496214	782.991053237251	34.522735063112	294.513812342973	865.654161877603	94.895748072606	326.259448599618	995.221465684182	41.513935482409	303.918559320265	1121.553177424569	1144.813177297369	115.687745031590	1375.362609762112	1176.445942875088	150.968442214924	706.414549448663	1170.640734127291	669.003677932198	652.387313331726	912.974737625838	658.158219045332	
